# xmcd
#
# Track frame offsets:
#	150
#	16489
#	32794
#	57493
#	75055
#	86305
#	107418
#	130014
#	144999
#	160203
#	187157
#
# Disc length: 2661 seconds
#
# Revision: 1
# Processed by: cddbd v1.5.2PL0 Copyright (c) Steve Scherf et al.
# Submitted via: audiograbber 1.83.01
#
DISCID=7f0a630b
DTITLE=Kyle Dillingham - The Gospel Fiddler
DYEAR=2016
DGENRE=Bluegrass
TTITLE0=The Great Speckled Bird
TTITLE1=I Saw The Light
TTITLE2=Precious Memories
TTITLE3=Liberty
TTITLE4=Turn Your Eyes Upon Jesus
TTITLE5=Will The Circle Be Unbroken
TTITLE6=Orange Blossom Special
TTITLE7=Will There Be Any Stars In My Crown
TTITLE8=Leaning On The Everlasting Arms
TTITLE9=Amazing Grace
TTITLE10=I'll Fly Away
EXTD=
EXTT0=
EXTT1=
EXTT2=
EXTT3=
EXTT4=
EXTT5=
EXTT6=
EXTT7=
EXTT8=
EXTT9=
EXTT10=
PLAYORDER=
